<svg width="221" height="44" viewBox="0 0 221 44" fill="none" xmlns="http://www.w3.org/2000/svg">
<g clip-path="url(#clip0_1801_695)">
<path d="M10.1777 35.4773C9.23868 35.4773 8.47118 34.7098 8.47118 33.7707V1.58083C8.47118 0.641769 7.70368 -0.125732 6.76462 -0.125732H1.85262C0.913564 -0.125732 0.146057 0.641769 0.146057 1.58083V42.0958C0.146057 43.0349 0.913564 43.8024 1.85262 43.8024H25.5368C26.4758 43.8024 27.2433 43.0349 27.2433 42.0958V37.1838C27.2433 36.2448 26.4758 35.4773 25.5368 35.4773H10.1777Z" fill="black"/>
<path d="M62.1691 1.32801C62.6657 0.533416 62.2955 -0.125732 61.3565 -0.125732H54.9817C54.0427 -0.125732 52.8688 0.524387 52.3722 1.32801L43.0177 16.4252C42.5211 17.2198 41.7175 17.2198 41.2209 16.4252L31.8664 1.32801C31.3698 0.533416 30.1959 -0.125732 29.2569 -0.125732H22.8821C21.943 -0.125732 21.5819 0.524387 22.0695 1.32801L37.0312 25.4907C37.5278 26.2853 37.9342 27.712 37.9342 28.651V42.0417C37.9342 42.9807 38.7017 43.7482 39.6407 43.7482H44.5527C45.4918 43.7482 46.2593 42.9807 46.2593 42.0417V28.7052C46.2593 27.7662 46.6656 26.3485 47.1622 25.5449L62.1601 1.33703L62.1691 1.32801Z" fill="black"/>
<path d="M140.03 1.58083C140.03 0.641768 139.262 -0.125732 138.323 -0.125732H108.571C107.632 -0.125732 106.865 0.641768 106.865 1.58083V6.49283C106.865 7.43189 107.632 8.19939 108.571 8.19939H117.583C118.522 8.19939 119.289 8.96689 119.289 9.90595V42.0326C119.289 42.9717 120.057 43.7392 120.996 43.7392H125.908C126.847 43.7392 127.614 42.9717 127.614 42.0326V9.89692C127.614 8.95786 128.382 8.19036 129.321 8.19036H138.332C139.271 8.19036 140.039 7.42286 140.039 6.4838V1.5718L140.03 1.58083Z" fill="black"/>
<path d="M96.8421 8.19036C97.7812 8.19036 98.5487 7.42286 98.5487 6.4838V1.5718C98.5487 0.632735 97.7812 -0.134766 96.8421 -0.134766H72.6523C71.7132 -0.134766 70.9457 0.632735 70.9457 1.5718V42.0146C70.9457 42.9537 71.7132 43.7211 72.6523 43.7211H77.5643C78.5033 43.7211 79.2708 42.9537 79.2708 42.0146V27.6759C79.2708 26.7368 80.0383 25.9693 80.9774 25.9693H91.587C92.526 25.9693 93.2935 25.2018 93.2935 24.2627V19.3507C93.2935 18.4117 92.526 17.6442 91.587 17.6442H80.9774C80.0383 17.6442 79.2708 16.8767 79.2708 15.9376V9.8879C79.2708 8.94884 80.0383 8.18133 80.9774 8.18133H96.8511L96.8421 8.19036Z" fill="black"/>
<path d="M174.17 -0.125732H150.269C149.327 -0.125732 148.563 0.638321 148.563 1.58083V6.49283C148.563 7.43534 149.327 8.19939 150.269 8.19939H174.17C175.113 8.19939 175.877 7.43534 175.877 6.49283V1.58083C175.877 0.638321 175.113 -0.125732 174.17 -0.125732Z" fill="black"/>
<path d="M174.17 17.6621H145.89C144.947 17.6621 144.183 18.4262 144.183 19.3687V24.2807C144.183 25.2232 144.947 25.9872 145.89 25.9872H174.17C175.113 25.9872 175.877 25.2232 175.877 24.2807V19.3687C175.877 18.4262 175.113 17.6621 174.17 17.6621Z" fill="black"/>
<path d="M174.17 35.4592H141.736C140.794 35.4592 140.03 36.2233 140.03 37.1658V42.0778C140.03 43.0203 140.794 43.7844 141.736 43.7844H174.17C175.113 43.7844 175.877 43.0203 175.877 42.0778V37.1658C175.877 36.2233 175.113 35.4592 174.17 35.4592Z" fill="black"/>
<path d="M220.283 42.2764L209.809 25.3553C213.873 22.9896 216.599 18.5832 216.599 13.5448C216.599 6.00525 210.487 -0.116703 202.947 -0.116703L202.938 -0.125732H186.008C185.069 -0.125732 184.301 0.641769 184.301 1.58083V42.0236C184.301 42.9627 185.069 43.7302 186.008 43.7302H190.92C191.859 43.7302 192.626 42.9627 192.626 42.0236V28.9039C192.626 27.9648 193.394 27.1973 194.333 27.1973H199.453C200.392 27.1973 201.565 27.8474 202.062 28.651L210.505 42.2764C211.001 43.071 212.175 43.7302 213.114 43.7302H219.489C220.428 43.7302 220.789 43.0801 220.301 42.2764H220.283ZM208.518 13.5538C208.518 16.2717 206.496 18.52 203.877 18.8722H194.324C193.385 18.8722 192.617 18.1047 192.617 17.1656V9.89693C192.617 8.95787 193.385 8.19037 194.324 8.19037H203.796V8.22649C206.459 8.54252 208.518 10.8089 208.518 13.5538Z" fill="black"/>
</g>
<defs>
<clipPath id="clip0_1801_695">
<rect width="220.5" height="43.875" fill="white"/>
</clipPath>
</defs>
</svg>
